# xmcd CD database file
#
# Track frame offsets:
#	150
#	23475
#	43902
#	51672
#	71540
#	100822
#	134620
#	159335
#	160760
#	179112
#	185730
#	200877
#	201942
#	225522
#	241382
#
# Disc length: 3235 seconds
#
# Revision: 1
# Processed by: cddbd v1.5.2PL0 Copyright (c) Steve Scherf et al.
# Submitted via: CDex 1.70beta2
#
DISCID=df0ca10f
DTITLE=世界宗教音楽ライブラリー - 天台声明
DYEAR=1978
DGENRE=World
TTITLE0=四智梵語讃
TTITLE1=四智漢語讃
TTITLE2=云何唄
TTITLE3=散華
TTITLE4=対揚
TTITLE5=供養文
TTITLE6=唱礼
TTITLE7=驚覚真言
TTITLE8=九方便
TTITLE9=五大願
TTITLE10=大讃
TTITLE11=仏讃
TTITLE12=四智梵語讃
TTITLE13=切音回向方便
TTITLE14=随方回向
EXTD=YEAR: 1978
EXTT0=
EXTT1=
EXTT2=
EXTT3=
EXTT4=
EXTT5=
EXTT6=
EXTT7=
EXTT8=
EXTT9=
EXTT10=
EXTT11=
EXTT12=
EXTT13=
EXTT14=
PLAYORDER=
